<?xml version="1.0" encoding="UTF-8"?>
<svg id="Layer_2" data-name="Layer 2" xmlns="http://www.w3.org/2000/svg" viewBox="0 0 1127.04 402.46">
  <defs>
    <style>
      .cls-1 {
        fill: #db2b39;
        stroke-width: 0px;
      }
    </style>
  </defs>
  <g id="Layer_1-2" data-name="Layer 1">
    <g>
      <path class="cls-1" d="M1099.9,365.51c-276.81-.98-561.69,14.82-838.39,28.92-63.54,2.91-129.99,5.84-193.47,7.92,0,0-2.69.09-2.69.09-.06.03-1.85,0-3.08-.04-1.32-.05-2.64-.1-3.96-.24-28.93-2.69-52.32-27.21-53.71-56.29C1.67,251.83.11,157.47,0,63.38.52,28.62,30.16-.3,64.9.02c225.92-.57,461.67,9.44,687.91,21.35,113.85,5.83,233.01,11.74,346.64,15.5,6.09.11,12.45,2.19,17.19,6.11,6.55,5.11,10.5,13.35,10.4,21.65.01.33,0,.56,0,.77,0,0-.08,2.69-.08,2.69-.92,30.45-1.68,60.91-2.31,91.36-1,42.26-1.47,86.78-1.87,128.98-.09,14.33-.24,28.66-.27,42.99-.08,4.24.35,12.6-.63,16.66-2.2,10-11.73,17.57-21.97,17.43h0ZM1099.9,360.51c8.32.08,16.09-6.43,17.23-14.72.18-1.26.26-2.25.24-3.62,0,0-.01-10.75-.01-10.75-.1-78.8-.17-179.16-.27-257.97,0,0,0-5.37,0-5.37,0,0,0-2.69,0-2.69.01-.48-.03-.81-.05-1.21-.14-3.45-1.39-6.85-3.51-9.58-3-3.98-7.86-6.53-12.85-6.69-.39-.02-.74-.05-1.22-.04,0,0-2.69,0-2.69,0,0,0-343.95.88-343.95.88-171.38.63-516.55,1.14-687.91,1.25-5.42,0-10.63,3.08-13.21,7.86-1.26,2.57-1.91,5.01-1.81,7.98,0,0-.01,10.75-.01,10.75-.04,80.9-.22,182.47-.28,263.34,0,0,0,2.69,0,2.69-.01.5.03.75.04,1.12.26,8.17,7.54,14.93,15.73,14.62,307.51.74,727.05,2.06,1034.55,2.14h0Z"/>
      <g>
        <path class="cls-1" d="M187.36,124.15v112.56h17.04c6.08,0,10.24-.76,12.48-2.28,2.24-1.52,3.36-5,3.36-10.44v-99.84h48v84.24c0,13.6-.88,24.56-2.64,32.88-1.76,8.32-5.04,15.36-9.84,21.12-4.8,5.76-11.36,9.76-19.68,12-8.32,2.24-19.12,3.36-32.4,3.36s-24.04-1.12-32.28-3.36c-8.24-2.24-14.76-6.24-19.56-12-4.8-5.76-8.08-12.8-9.84-21.12-1.76-8.32-2.64-19.28-2.64-32.88v-84.24h48Z"/>
        <path class="cls-1" d="M376.72,274.15l-36.72-53.28c-1.28-1.76-2.08-5.6-2.4-11.52h-.96v64.8h-48V124.15h45.12l36.72,53.28c1.28,1.76,2.08,5.6,2.4,11.52h.96v-64.8h48v150h-45.12Z"/>
        <path class="cls-1" d="M525.04,237.91h-31.2v36.24h-48V124.15h75.6c34.4,0,51.6,18.48,51.6,55.44,0,20.32-4.48,35.36-13.44,45.12-3.36,3.68-8,6.8-13.92,9.36-5.92,2.56-12.8,3.84-20.64,3.84ZM493.84,162.55v36.96h11.04c5.76,0,9.96-.6,12.6-1.8,2.64-1.2,3.96-3.96,3.96-8.28v-16.8c0-4.32-1.32-7.08-3.96-8.28-2.64-1.2-6.84-1.8-12.6-1.8h-11.04Z"/>
        <path class="cls-1" d="M683.44,274.15h-96V124.15h48v111.6h48v38.4Z"/>
        <path class="cls-1" d="M713.2,274.15h-50.64l38.88-150h74.16l38.88,150h-50.64l-5.52-23.76h-39.6l-5.52,23.76ZM737.2,170.23l-9.84,42h22.08l-9.6-42h-2.64Z"/>
        <path class="cls-1" d="M911.67,274.15l-36.72-53.28c-1.28-1.76-2.08-5.6-2.4-11.52h-.96v64.8h-48V124.15h45.12l36.72,53.28c1.28,1.76,2.08,5.6,2.4,11.52h.96v-64.8h48v150h-45.12Z"/>
        <path class="cls-1" d="M981.27,270.07c-3.52-3.68-5.28-10.24-5.28-19.68s1.76-16.08,5.28-19.92c3.52-3.84,10.44-5.76,20.76-5.76s17.24,1.92,20.76,5.76c3.52,3.84,5.28,10.48,5.28,19.92s-1.76,16-5.28,19.68c-3.52,3.68-10.44,5.52-20.76,5.52s-17.24-1.84-20.76-5.52Z"/>
      </g>
    </g>
  </g>
</svg>